# xmcd CD database file
#
# Track frame offsets:
#	150
#	17432
#	43357
#	58745
#	74800
#	91120
#	107577
#	139345
#	160657
#	179200
#	205272
#
# Disc length: 2898 seconds
#
# Revision: 3
# Processed by: cddbd v1.4PL0 Copyright (c) Steve Scherf et al.
# Submitted via: CDex 1.50beta9
#
DISCID=a20b500b
DTITLE=William Clarke - Blowin' Like Hell
DYEAR=1990
DGENRE=Blues
TTITLE0=Lollipop Mama
TTITLE1=Lonesome Bedroom Blues
TTITLE2=Gambling For My Bread
TTITLE3=Greasy Gravy
TTITLE4=Trying So Hard
TTITLE5=Cash Money
TTITLE6=Must Be Jelly
TTITLE7=Sweet Angel's Gone
TTITLE8=Looking To The Future
TTITLE9=Drinking By Myself
TTITLE10=Blowin' Like Hell
EXTD=ALCD 4788 YEAR: 1990
EXTT0=
EXTT1=
EXTT2=
EXTT3=
EXTT4=
EXTT5=
EXTT6=
EXTT7=
EXTT8=
EXTT9=
EXTT10=
PLAYORDER=
